<?xml version="1.0" encoding="UTF-8" standalone="no"?>
<!-- Created with Inkscape (http://www.inkscape.org/) -->

<svg
   xmlns:osb="http://www.openswatchbook.org/uri/2009/osb"
   xmlns:dc="http://purl.org/dc/elements/1.1/"
   xmlns:cc="http://creativecommons.org/ns#"
   xmlns:rdf="http://www.w3.org/1999/02/22-rdf-syntax-ns#"
   xmlns:svg="http://www.w3.org/2000/svg"
   xmlns="http://www.w3.org/2000/svg"
   xmlns:sodipodi="http://sodipodi.sourceforge.net/DTD/sodipodi-0.dtd"
   xmlns:inkscape="http://www.inkscape.org/namespaces/inkscape"
   inkscape:export-ydpi="90"
   inkscape:export-xdpi="90"
   width="512"
   height="512"
   id="svg11300"
   sodipodi:version="0.32"
   inkscape:version="0.91 r13725"
   sodipodi:docname="radionl.svg"
   inkscape:output_extension="org.inkscape.output.svg.inkscape"
   version="1.0"
   style="display:inline;enable-background:new"
   inkscape:export-filename="/home/sander/radionl/radionl.png">
  <title
     id="title3004">Suru Icon Template</title>
  <sodipodi:namedview
     stroke="#ef2929"
     fill="#f57900"
     id="base"
     pagecolor="#474747"
     bordercolor="#666666"
     borderopacity="0.25490196"
     inkscape:pageopacity="0"
     inkscape:pageshadow="2"
     inkscape:zoom="1"
     inkscape:cx="218.41438"
     inkscape:cy="362.32381"
     inkscape:current-layer="g3055"
     showgrid="false"
     inkscape:grid-bbox="true"
     inkscape:document-units="px"
     inkscape:showpageshadow="false"
     inkscape:window-width="1855"
     inkscape:window-height="1056"
     inkscape:window-x="1505"
     inkscape:window-y="24"
     width="400px"
     height="300px"
     inkscape:snap-nodes="true"
     inkscape:snap-bbox="true"
     gridtolerance="10000"
     inkscape:object-nodes="true"
     inkscape:snap-grids="true"
     showguides="true"
     inkscape:guide-bbox="true"
     inkscape:window-maximized="1"
     inkscape:bbox-nodes="true"
     inkscape:bbox-paths="true"
     inkscape:snap-bbox-midpoints="true"
     inkscape:snap-bbox-edge-midpoints="true"
     inkscape:snap-global="true">
    <inkscape:grid
       spacingy="1px"
       spacingx="1px"
       id="grid5883"
       type="xygrid"
       enabled="true"
       visible="true"
       empspacing="4"
       snapvisiblegridlinesonly="true" />
    <sodipodi:guide
       position="256,256"
       orientation="-0.70710678,0.70710678"
       id="guide10813"
       inkscape:label=""
       inkscape:color="rgb(0,0,255)" />
    <sodipodi:guide
       position="256,256"
       orientation="0.70710678,0.70710678"
       id="guide10815"
       inkscape:label=""
       inkscape:color="rgb(0,0,255)" />
    <sodipodi:guide
       position="104,408"
       orientation="1,0"
       id="guide10817" />
    <sodipodi:guide
       position="120,408"
       orientation="1,0"
       id="guide10819" />
    <sodipodi:guide
       position="136,408"
       orientation="1,0"
       id="guide10821" />
    <sodipodi:guide
       position="104,392"
       orientation="0,1"
       id="guide10823" />
    <sodipodi:guide
       position="104,408"
       orientation="0,1"
       id="guide10825" />
    <sodipodi:guide
       position="104,376"
       orientation="0,1"
       id="guide10827" />
    <sodipodi:guide
       position="408,408"
       orientation="1,0"
       id="guide10829" />
    <sodipodi:guide
       position="376,408"
       orientation="1,0"
       id="guide10831" />
    <sodipodi:guide
       position="392,408"
       orientation="1,0"
       id="guide10833" />
    <sodipodi:guide
       position="104,104"
       orientation="0,1"
       id="guide10837" />
    <sodipodi:guide
       position="104,120"
       orientation="0,1"
       id="guide10839" />
    <sodipodi:guide
       position="104,136"
       orientation="0,1"
       id="guide10841" />
    <sodipodi:guide
       position="0,496"
       orientation="0,1"
       id="guide10843"
       inkscape:label=""
       inkscape:color="rgb(255,0,0)" />
    <sodipodi:guide
       position="0,16"
       orientation="0,1"
       id="guide10845"
       inkscape:label=""
       inkscape:color="rgb(255,0,0)" />
  </sodipodi:namedview>
  <defs
     id="defs3">
    <linearGradient
       id="linearGradient5460"
       osb:paint="gradient">
      <stop
         style="stop-color:#e6e6e6;stop-opacity:1"
         offset="0"
         id="stop5462" />
      <stop
         style="stop-color:#ffffff;stop-opacity:1"
         offset="1"
         id="stop5464" />
    </linearGradient>
    <linearGradient
       id="linearGradient5476"
       osb:paint="solid">
      <stop
         style="stop-color:#772953;stop-opacity:1;"
         offset="0"
         id="stop5478" />
    </linearGradient>
  </defs>
  <metadata
     id="metadata4">
    <rdf:RDF>
      <cc:Work
         rdf:about="">
        <dc:format>image/svg+xml</dc:format>
        <dc:type
           rdf:resource="http://purl.org/dc/dcmitype/StillImage" />
        <dc:creator>
          <cc:Agent>
            <dc:title>Sam Hewitt</dc:title>
          </cc:Agent>
        </dc:creator>
        <dc:source />
        <cc:license
           rdf:resource="http://creativecommons.org/licenses/by-sa/3.0/" />
        <dc:title>Suru Icon Template</dc:title>
        <dc:subject>
          <rdf:Bag />
        </dc:subject>
        <dc:date />
        <dc:rights>
          <cc:Agent>
            <dc:title />
          </cc:Agent>
        </dc:rights>
        <dc:publisher>
          <cc:Agent>
            <dc:title />
          </cc:Agent>
        </dc:publisher>
        <dc:identifier />
        <dc:relation />
        <dc:language />
        <dc:coverage />
        <dc:description />
        <dc:contributor>
          <cc:Agent>
            <dc:title />
          </cc:Agent>
        </dc:contributor>
      </cc:Work>
      <cc:Work
         rdf:about="">
        <dc:format>image/svg+xml</dc:format>
        <dc:type
           rdf:resource="http://purl.org/dc/dcmitype/StillImage" />
      </cc:Work>
      <cc:License
         rdf:about="http://creativecommons.org/licenses/by-sa/3.0/">
        <cc:permits
           rdf:resource="http://creativecommons.org/ns#Reproduction" />
        <cc:permits
           rdf:resource="http://creativecommons.org/ns#Distribution" />
        <cc:requires
           rdf:resource="http://creativecommons.org/ns#Notice" />
        <cc:requires
           rdf:resource="http://creativecommons.org/ns#Attribution" />
        <cc:permits
           rdf:resource="http://creativecommons.org/ns#DerivativeWorks" />
        <cc:requires
           rdf:resource="http://creativecommons.org/ns#ShareAlike" />
      </cc:License>
    </rdf:RDF>
  </metadata>
  <g
     style="display:inline"
     inkscape:groupmode="layer"
     inkscape:label="Icon"
     id="layer1"
     transform="translate(0,212)">
    <g
       style="display:inline"
       inkscape:label="Background"
       id="g3055"
       inkscape:groupmode="layer">
      <path
         inkscape:connector-curvature="0"
         style="color:#000000;display:inline;overflow:visible;visibility:visible;fill:#b3b3b3;fill-opacity:1;fill-rule:nonzero;stroke:none;stroke-width:1;marker:none;enable-background:accumulate"
         d="M 0,-212 0,-28.10156 0,116.10156 0,300 512,300 512,116.10156 512,-28.10156 512,-212 0,-212 Z"
         id="rect4158" />
      <path
         inkscape:connector-curvature="0"
         style="color:#000000;display:inline;overflow:visible;visibility:visible;fill:#999999;fill-opacity:1;fill-rule:nonzero;stroke:none;stroke-width:1;marker:none;enable-background:accumulate"
         d="M 0,44 0,135.94922 0,208.05078 0,300 l 512,0 0,-91.94922 0,-72.10156 L 512,44 0,44 Z"
         id="rect4158-6" />
      <g
         transform="translate(-1441.0563,601.01342)"
         style="display:inline;enable-background:new"
         id="g4636">
        <path
           style="display:inline;fill:#21468b;fill-opacity:1;enable-background:new"
           inkscape:connector-curvature="0"
           d="m 1594.4243,-468.93627 -47.368,0 c -3.866,0 -7,3.134 -7,7 0,3.866 3.134,7 7,7 l 47.368,0 c 3.866,0 7,-3.134 7,-7 0,-3.866 -3.134,-7 -7,-7 z"
           id="path4184-7" />
        <path
           style="display:inline;fill:#ffffff;enable-background:new"
           inkscape:connector-curvature="0"
           d="m 1594.4243,-532.32227 -47.368,0 c -3.866,0 -7,3.134 -7,7 0,3.866 3.134,7 7,7 l 47.368,0 c 3.866,0 7,-3.134 7,-7 0,-3.866 -3.134,-7 -7,-7 z"
           id="path4188-3-9" />
        <path
           style="display:inline;fill:#ffffff;enable-background:new"
           inkscape:connector-curvature="0"
           d="m 1594.4243,-564.01427 -47.368,0 c -3.866,0 -7,3.134 -7,7 0,3.866 3.134,7 7,7 l 47.368,0 c 3.866,0 7,-3.134 7,-7 0,-3.866 -3.134,-7 -7,-7 z"
           id="path4190-6-3" />
        <path
           style="display:inline;fill:#ffffff;enable-background:new"
           inkscape:connector-curvature="0"
           d="m 1594.4243,-595.70727 -47.368,0 c -3.866,0 -7,3.134 -7,7 0,3.866 3.134,7 7,7 l 47.368,0 c 3.866,0 7,-3.134 7,-7 0,-3.866 -3.134,-7 -7,-7 z"
           id="path4192-7-6" />
        <path
           style="display:inline;fill:#da081a;fill-opacity:1;enable-background:new"
           inkscape:connector-curvature="0"
           d="m 1594.4243,-627.39927 -47.368,0 c -3.866,0 -7,3.134 -7,7 0,3.866 3.134,7 7,7 l 47.368,0 c 3.866,0 7,-3.134 7,-7 0,-3.866 -3.134,-7 -7,-7 z"
           id="path4194-5-0" />
        <path
           style="display:inline;fill:#da081a;fill-opacity:1;enable-background:new"
           inkscape:connector-curvature="0"
           d="m 1594.4243,-659.09027 -47.368,0 c -3.866,0 -7,3.134 -7,7 0,3.866 3.134,7 7,7 l 47.368,0 c 3.866,0 7,-3.134 7,-7 0,-3.867 -3.134,-7 -7,-7 z"
           id="path4196-3-6" />
        <path
           style="display:inline;fill:#da081a;fill-opacity:1;enable-background:new"
           inkscape:connector-curvature="0"
           d="m 1594.4243,-690.78427 -47.368,0 c -3.866,0 -7,3.134 -7,7 0,3.866 3.134,7 7,7 l 47.368,0 c 3.866,0 7,-3.134 7,-7 0,-3.866 -3.134,-7 -7,-7 z"
           id="path4198-5-2" />
        <path
           style="display:inline;fill:#21468b;fill-opacity:1;enable-background:new"
           inkscape:connector-curvature="0"
           d="m 1678.6343,-468.93627 -47.368,0 c -3.866,0 -7,3.134 -7,7 0,3.866 3.134,7 7,7 l 47.368,0 c 3.866,0 7,-3.134 7,-7 0,-3.866 -3.134,-7 -7,-7 z"
           id="path4200-6-6" />
        <path
           style="display:inline;fill:#ffffff;enable-background:new"
           inkscape:connector-curvature="0"
           d="m 1678.6343,-532.32227 -47.368,0 c -3.866,0 -7,3.134 -7,7 0,3.866 3.134,7 7,7 l 47.368,0 c 3.866,0 7,-3.134 7,-7 0,-3.866 -3.134,-7 -7,-7 z"
           id="path4204-9-8" />
        <path
           style="display:inline;fill:#ffffff;enable-background:new"
           inkscape:connector-curvature="0"
           d="m 1678.6343,-564.01427 -47.368,0 c -3.866,0 -7,3.134 -7,7 0,3.866 3.134,7 7,7 l 47.368,0 c 3.866,0 7,-3.134 7,-7 0,-3.866 -3.134,-7 -7,-7 z"
           id="path4206-7" />
        <path
           style="display:inline;fill:#ffffff;enable-background:new"
           inkscape:connector-curvature="0"
           d="m 1678.6343,-595.70727 -47.368,0 c -3.866,0 -7,3.134 -7,7 0,3.866 3.134,7 7,7 l 47.368,0 c 3.866,0 7,-3.134 7,-7 0,-3.866 -3.134,-7 -7,-7 z"
           id="path4208-9" />
        <path
           style="display:inline;fill:#21468b;fill-opacity:1;enable-background:new"
           inkscape:connector-curvature="0"
           d="m 1762.8453,-468.93627 -47.368,0 c -3.866,0 -7,3.134 -7,7 0,3.866 3.134,7 7,7 l 47.368,0 c 3.866,0 7,-3.134 7,-7 0,-3.866 -3.134,-7 -7,-7 z"
           id="path4210-2" />
        <path
           style="display:inline;fill:#21468b;fill-opacity:1;enable-background:new"
           inkscape:connector-curvature="0"
           d="m 1847.0563,-468.93627 -47.368,0 c -3.866,0 -7,3.134 -7,7 0,3.866 3.134,7 7,7 l 47.368,0 c 3.866,0 7,-3.134 7,-7 0,-3.866 -3.134,-7 -7,-7 z"
           id="path4214-2" />
        <g
           style="display:inline;fill:#21468b;fill-opacity:1;enable-background:new"
           id="g4531"
           transform="translate(609.52606,-206.05857)">
          <path
             style="fill:#21468b;fill-opacity:1"
             id="path4186-0"
             d="m 984.89823,-294.5717 -47.368,0 c -3.866,0 -7,3.134 -7,7 0,3.866 3.134,7 7,7 l 47.368,0 c 3.866,0 7,-3.134 7,-7 0,-3.866 -3.134,-7 -7,-7 z"
             inkscape:connector-curvature="0" />
          <path
             style="fill:#21468b;fill-opacity:1"
             id="path4202-2-1"
             d="m 1069.1082,-294.5717 -47.368,0 c -3.866,0 -7,3.134 -7,7 0,3.866 3.134,7 7,7 l 47.368,0 c 3.866,0 7,-3.134 7,-7 0,-3.866 -3.134,-7 -7,-7 z"
             inkscape:connector-curvature="0" />
          <path
             style="fill:#21468b;fill-opacity:1"
             id="path4212-0"
             d="m 1153.3192,-294.5717 -47.368,0 c -3.866,0 -7,3.134 -7,7 0,3.866 3.134,7 7,7 l 47.368,0 c 3.866,0 7,-3.134 7,-7 0,-3.866 -3.134,-7 -7,-7 z"
             inkscape:connector-curvature="0" />
          <path
             style="fill:#21468b;fill-opacity:1"
             id="path4216-3"
             d="m 1237.5302,-294.5717 -47.368,0 c -3.866,0 -7,3.134 -7,7 0,3.866 3.134,7 7,7 l 47.368,0 c 3.866,0 7,-3.134 7,-7 0,-3.866 -3.134,-7 -7,-7 z"
             inkscape:connector-curvature="0" />
        </g>
        <path
           style="display:inline;fill:#ffffff;enable-background:new"
           inkscape:connector-curvature="0"
           d="m 1847.0563,-532.32227 -47.368,0 c -3.866,0 -7,3.134 -7,7 0,3.866 3.134,7 7,7 l 47.368,0 c 3.866,0 7,-3.134 7,-7 0,-3.866 -3.134,-7 -7,-7 z"
           id="path4218-7" />
        <path
           style="display:inline;fill:#ffffff;enable-background:new"
           inkscape:connector-curvature="0"
           d="m 1847.0563,-564.01427 -47.368,0 c -3.866,0 -7,3.134 -7,7 0,3.866 3.134,7 7,7 l 47.368,0 c 3.866,0 7,-3.134 7,-7 0,-3.866 -3.134,-7 -7,-7 z"
           id="path4220-5" />
        <path
           style="display:inline;fill:#ffffff;enable-background:new"
           inkscape:connector-curvature="0"
           d="m 1847.0563,-595.70727 -47.368,0 c -3.866,0 -7,3.134 -7,7 0,3.866 3.134,7 7,7 l 47.368,0 c 3.866,0 7,-3.134 7,-7 0,-3.866 -3.134,-7 -7,-7 z"
           id="path4222-9" />
        <path
           style="display:inline;fill:#da081a;fill-opacity:1;enable-background:new"
           inkscape:connector-curvature="0"
           d="m 1847.0563,-627.39927 -47.368,0 c -3.866,0 -7,3.134 -7,7 0,3.866 3.134,7 7,7 l 47.368,0 c 3.866,0 7,-3.134 7,-7 0,-3.866 -3.134,-7 -7,-7 z"
           id="path4224-2" />
        <path
           style="display:inline;fill:#da081a;fill-opacity:1;enable-background:new"
           inkscape:connector-curvature="0"
           d="m 1847.0563,-659.09027 -47.368,0 c -3.866,0 -7,3.134 -7,7 0,3.866 3.134,7 7,7 l 47.368,0 c 3.866,0 7,-3.134 7,-7 0,-3.867 -3.134,-7 -7,-7 z"
           id="path4226-2" />
        <path
           style="display:inline;fill:#da081a;fill-opacity:1;enable-background:new"
           inkscape:connector-curvature="0"
           d="m 1799.6883,-676.78427 47.368,0 c 3.866,0 7,-3.134 7,-7 0,-3.866 -3.134,-7 -7,-7 l -47.368,0 c -3.866,0 -7,3.134 -7,7 0,3.866 3.134,7 7,7 z"
           id="path4228-8" />
        <g
           style="display:inline;fill:#21468b;fill-opacity:1;enable-background:new"
           transform="translate(712.05627,-188.74257)"
           id="g4525">
          <path
             style="display:inline;fill:#21468b;fill-opacity:1;enable-background:new"
             id="path4184-7-0"
             d="m 882.36802,-248.5 -47.368,0 c -3.866,0 -7,3.134 -7,7 0,3.866 3.134,7 7,7 l 47.368,0 c 3.866,0 7,-3.134 7,-7 0,-3.866 -3.134,-7 -7,-7 z"
             inkscape:connector-curvature="0" />
          <path
             style="display:inline;fill:#21468b;fill-opacity:1;enable-background:new"
             id="path4200-6-6-3"
             d="m 966.57799,-248.5 -47.368,0 c -3.866,0 -7,3.134 -7,7 0,3.866 3.134,7 7,7 l 47.368,0 c 3.866,0 7,-3.134 7,-7 0,-3.866 -3.134,-7 -7,-7 z"
             inkscape:connector-curvature="0" />
          <path
             style="display:inline;fill:#21468b;fill-opacity:1;enable-background:new"
             id="path4210-2-6"
             d="m 1050.789,-248.5 -47.368,0 c -3.86601,0 -7.00001,3.134 -7.00001,7 0,3.866 3.134,7 7.00001,7 l 47.368,0 c 3.866,0 7,-3.134 7,-7 0,-3.866 -3.134,-7 -7,-7 z"
             inkscape:connector-curvature="0" />
          <path
             style="display:inline;fill:#21468b;fill-opacity:1;enable-background:new"
             id="path4214-2-1"
             d="m 1135,-248.5 -47.368,0 c -3.866,0 -7,3.134 -7,7 0,3.866 3.134,7 7,7 l 47.368,0 c 3.866,0 7,-3.134 7,-7 0,-3.866 -3.134,-7 -7,-7 z"
             inkscape:connector-curvature="0" />
        </g>
      </g>
    </g>
    <g
       inkscape:groupmode="layer"
       id="layer5"
       inkscape:label="Pictogram"
       style="display:inline" />
  </g>
</svg>
